<?xml version="1.0" encoding="UTF-8"?>
<svg xmlns="http://www.w3.org/2000/svg" id="Layer_1" data-name="Layer 1" viewBox="0 0 393 171">
  <defs>
    <style>.cls-1{fill:#fff;}</style>
  </defs>
  <path class="cls-1" d="M138.53,79H89a6.63,6.63,0,0,0,0,13.26h9.85A27.68,27.68,0,1,1,87.39,62.48a6.63,6.63,0,0,0,7.39-11,41,41,0,1,0,17.6,40.79h15.27a56.13,56.13,0,1,1-28.72-56,6.62,6.62,0,0,0,9-2.6,6.64,6.64,0,0,0-2.61-9A69.45,69.45,0,1,0,141,91.76,6.63,6.63,0,0,0,138.53,79Z"></path>
  <path class="cls-1" d="M182.34,102.94a29,29,0,0,0-3.35-2c-1-.52-1.76-1-2.27-1.27a4.07,4.07,0,0,1-1.05-1,1.71,1.71,0,0,1-.33-1.07,1.81,1.81,0,0,1,.56-1.38A2.94,2.94,0,0,1,179,96a3,3,0,0,1,1.16,1,2.49,2.49,0,0,0,2,1,2.22,2.22,0,0,0,1.44-.47,2.37,2.37,0,0,0,1-2A2.3,2.3,0,0,0,184.1,94a7.89,7.89,0,0,0-2.95-2.41,8,8,0,0,0-7.3.08,6.65,6.65,0,0,0-2.51,2.51,7,7,0,0,0-.9,3.51,6.36,6.36,0,0,0,.95,3.49,7.87,7.87,0,0,0,2.24,2.32,29.92,29.92,0,0,0,3.08,1.8c1.06.56,1.88,1,2.45,1.41a3.48,3.48,0,0,1,1.08,1.08,2.3,2.3,0,0,1,.35,1.32,2.1,2.1,0,0,1-.85,1.9,4.09,4.09,0,0,1-2.52.75,4.87,4.87,0,0,1-2.15-.48,4.26,4.26,0,0,1-1.6-1.3,2.53,2.53,0,0,0-2-1,2.23,2.23,0,0,0-1.45.5,2.44,2.44,0,0,0-1,2,2.58,2.58,0,0,0,.55,1.55,9.83,9.83,0,0,0,7.73,3.67,9,9,0,0,0,4.17-.94,7.15,7.15,0,0,0,3-2.74,7.67,7.67,0,0,0,1.07-4,6.92,6.92,0,0,0-.92-3.61A8.28,8.28,0,0,0,182.34,102.94Z"></path>
  <path class="cls-1" d="M204.1,98.49a2.53,2.53,0,0,0-3.53,0,2.43,2.43,0,0,0-.72,1.75v6.65a6,6,0,0,1-1,3.75,3.33,3.33,0,0,1-2.82,1.17,1.92,1.92,0,0,1-1.68-.72,4.2,4.2,0,0,1-.68-2.61v-8.24a2.43,2.43,0,0,0-.7-1.76,2.56,2.56,0,0,0-3.49,0,2.38,2.38,0,0,0-.75,1.78v8.56a8.47,8.47,0,0,0,1.86,5.69,6.45,6.45,0,0,0,5.15,2.26,8.1,8.1,0,0,0,3.76-.86q.38-.19.72-.42a3,3,0,0,0,.39.49,2.52,2.52,0,0,0,3.53,0,2.44,2.44,0,0,0,.68-1.72v-14a2.43,2.43,0,0,0-.68-1.72Z"></path>
  <path class="cls-1" d="M222.79,98.86h0A9.23,9.23,0,0,0,218,97.61a9.29,9.29,0,0,0-4.4,1.07,2.09,2.09,0,0,0-.24-.28,2.52,2.52,0,0,0-3.53,0,2.46,2.46,0,0,0-.69,1.73v20.78a2.42,2.42,0,0,0,.69,1.72,2.38,2.38,0,0,0,1.78.75,2.46,2.46,0,0,0,2.47-2.47v-5a6.07,6.07,0,0,0,.59.24,9.36,9.36,0,0,0,3.3.59,9.17,9.17,0,0,0,8.12-4.72,10.25,10.25,0,0,0,0-9.7A9.12,9.12,0,0,0,222.79,98.86Zm-2.64,12.35h0a5,5,0,0,1-4.65.07,4.23,4.23,0,0,1-1.38-1.12v-6a4.13,4.13,0,0,1,1.4-1.11,5.15,5.15,0,0,1,4.67.08,4.25,4.25,0,0,1,1.63,1.63,4.81,4.81,0,0,1,.59,2.41,4.68,4.68,0,0,1-.61,2.4A4.31,4.31,0,0,1,220.15,111.21Z"></path>
  <path class="cls-1" d="M243.78,98.75h0a9.19,9.19,0,0,0-4.54-1.14,9.42,9.42,0,0,0-4.8,1.25,8.94,8.94,0,0,0-3.38,3.44,9.79,9.79,0,0,0-1.22,4.85A10,10,0,0,0,231,112a8.76,8.76,0,0,0,3.48,3.48,10.41,10.41,0,0,0,5.06,1.23,10.65,10.65,0,0,0,3.85-.69,9.68,9.68,0,0,0,3.19-2,2.43,2.43,0,0,0,.16-3.52,2.57,2.57,0,0,0-3.58,0,4.49,4.49,0,0,1-1.58,1,5.79,5.79,0,0,1-2,.32,5,5,0,0,1-3.31-1,4.1,4.1,0,0,1-1-1.28h10.25a2.43,2.43,0,0,0,1.74-.7,2.79,2.79,0,0,0,.76-1.71c0-.2,0-.53,0-1a8.38,8.38,0,0,0-4.29-7.4Zm-.87,6h-7.62a4.2,4.2,0,0,1,1-1.23,4.45,4.45,0,0,1,3-1,3.89,3.89,0,0,1,2.79,1A3.28,3.28,0,0,1,242.91,104.75Z"></path>
  <path class="cls-1" d="M265.11,99.45a6.22,6.22,0,0,0-4.66-1.84,7.13,7.13,0,0,0-3.93,1.12l-.37.25a2.69,2.69,0,0,0-.44-.58,2.52,2.52,0,0,0-3.53,0,2.46,2.46,0,0,0-.69,1.73v14a2.46,2.46,0,0,0,.69,1.73,2.5,2.5,0,0,0,3.53,0,2.45,2.45,0,0,0,.72-1.75v-6a8.37,8.37,0,0,1,.53-3.07,4.4,4.4,0,0,1,1.33-1.92,2.74,2.74,0,0,1,1.77-.61,1.75,1.75,0,0,1,1.35.46,2,2,0,0,1,.5,1.49,2.91,2.91,0,0,0,.7,1.66,2.49,2.49,0,0,0,3.56,0,2.64,2.64,0,0,0,.7-1.9,6.62,6.62,0,0,0-1.76-4.78Z"></path>
  <path class="cls-1" d="M287.62,97.61a7.08,7.08,0,0,0-5.19,2.11,5.77,5.77,0,0,0-1.15-1.06,6,6,0,0,0-3.49-1,6.77,6.77,0,0,0-3.87,1.12,1.75,1.75,0,0,0-.28-.33,2.52,2.52,0,0,0-3.53,0,2.46,2.46,0,0,0-.69,1.73v14a2.46,2.46,0,0,0,.69,1.73,2.52,2.52,0,0,0,3.53,0,2.45,2.45,0,0,0,.72-1.75v-6.65a6.86,6.86,0,0,1,.9-3.83,2.39,2.39,0,0,1,2.18-1.09,1.35,1.35,0,0,1,1.24.65,4.83,4.83,0,0,1,.6,2.69v8.23a2.42,2.42,0,0,0,.71,1.76,2.57,2.57,0,0,0,3.49,0,2.44,2.44,0,0,0,.74-1.79v-6.65a6.86,6.86,0,0,1,.9-3.83,2.38,2.38,0,0,1,2.18-1.09,1.35,1.35,0,0,1,1.24.65,4.83,4.83,0,0,1,.6,2.69v8.23a2.48,2.48,0,0,0,4.19,1.79,2.42,2.42,0,0,0,.75-1.79v-8.56a9,9,0,0,0-1.67-5.64A5.79,5.79,0,0,0,287.62,97.61Z"></path>
  <path class="cls-1" d="M311.23,98.4a2.09,2.09,0,0,0-.24.28,9.56,9.56,0,0,0-1.08-.48,9.43,9.43,0,0,0-3.32-.59,9.3,9.3,0,0,0-4.76,1.25,8.89,8.89,0,0,0-3.35,3.45,10.32,10.32,0,0,0,0,9.66,8.94,8.94,0,0,0,3.34,3.48,9.22,9.22,0,0,0,4.77,1.27,9.35,9.35,0,0,0,3.29-.59,7.66,7.66,0,0,0,1.13-.51,2.62,2.62,0,0,0,.22.25,2.51,2.51,0,0,0,3.49,0,2.43,2.43,0,0,0,.72-1.75v-14a2.42,2.42,0,0,0-.72-1.75A2.5,2.5,0,0,0,311.23,98.4Zm-8.42,11.16a5.14,5.14,0,0,1,0-4.82,4.12,4.12,0,0,1,1.63-1.63,4.78,4.78,0,0,1,2.41-.59,5,5,0,0,1,2.24.51,4.55,4.55,0,0,1,1.42,1.12v6a4.07,4.07,0,0,1-1.4,1.13h0a5,5,0,0,1-4.66-.09A4.11,4.11,0,0,1,302.81,109.56Z"></path>
  <path class="cls-1" d="M333.46,99.45a6.22,6.22,0,0,0-4.66-1.84,7.13,7.13,0,0,0-3.93,1.12l-.37.25a2.69,2.69,0,0,0-.44-.58,2.52,2.52,0,0,0-3.53,0,2.46,2.46,0,0,0-.69,1.73v14a2.46,2.46,0,0,0,.69,1.73,2.5,2.5,0,0,0,3.53,0,2.45,2.45,0,0,0,.72-1.75v-6a8.37,8.37,0,0,1,.53-3.07,4.4,4.4,0,0,1,1.33-1.92,2.72,2.72,0,0,1,1.77-.61,1.75,1.75,0,0,1,1.35.46,2,2,0,0,1,.5,1.49,2.91,2.91,0,0,0,.7,1.66,2.49,2.49,0,0,0,3.56,0,2.64,2.64,0,0,0,.7-1.9,6.62,6.62,0,0,0-1.76-4.78Z"></path>
  <path class="cls-1" d="M348.3,105.08l3.48-3.08a2.26,2.26,0,0,0,.92-1.85,2.44,2.44,0,0,0-.6-1.65,2.53,2.53,0,0,0-3.52-.2l-5.71,5.1V91.75a2.41,2.41,0,0,0-.74-1.79,2.57,2.57,0,0,0-3.49,0,2.44,2.44,0,0,0-.71,1.76v22.37a2.46,2.46,0,0,0,.71,1.77,2.58,2.58,0,0,0,3.49,0,2.41,2.41,0,0,0,.74-1.79v-4.19l1.71-1.54,4.58,7.07a2.35,2.35,0,0,0,2.07,1.13,2.5,2.5,0,0,0,1.69-.66,2.32,2.32,0,0,0,.78-1.74,2.41,2.41,0,0,0-.43-1.39Z"></path>
  <path class="cls-1" d="M369,98.75h0a9.15,9.15,0,0,0-4.53-1.14,9.42,9.42,0,0,0-4.8,1.25,9,9,0,0,0-3.39,3.44,9.79,9.79,0,0,0-1.22,4.85,10.06,10.06,0,0,0,1.2,4.86,8.76,8.76,0,0,0,3.48,3.48,10.38,10.38,0,0,0,5.06,1.23,10.69,10.69,0,0,0,3.85-.69,9.68,9.68,0,0,0,3.19-2,2.43,2.43,0,0,0,.16-3.52,2.58,2.58,0,0,0-3.59,0,4.45,4.45,0,0,1-1.57,1,5.83,5.83,0,0,1-2,.32,5,5,0,0,1-3.31-1,4.28,4.28,0,0,1-1.05-1.28h10.26a2.39,2.39,0,0,0,1.73-.7,2.74,2.74,0,0,0,.76-1.71,7.12,7.12,0,0,0,.05-1,8.41,8.41,0,0,0-4.3-7.4Zm-.87,6h-7.61a4.2,4.2,0,0,1,1-1.23,4.45,4.45,0,0,1,3-1,3.92,3.92,0,0,1,2.8,1A3.15,3.15,0,0,1,368.12,104.75Z"></path>
  <path class="cls-1" d="M389.75,108.41a2.44,2.44,0,0,0-4.22,1.66,2.38,2.38,0,0,1-.39,1.42c-.07.09-.26.32-.93.32a1.06,1.06,0,0,1-.93-.33,2.59,2.59,0,0,1-.36-1.57v-7.07h4a2.41,2.41,0,0,0,2.44-2.43,2.48,2.48,0,0,0-.71-1.77,2.39,2.39,0,0,0-1.73-.7h-4V93a2.39,2.39,0,0,0-.75-1.76,2.58,2.58,0,0,0-3.49,0A2.39,2.39,0,0,0,378,93v5h-1a2.39,2.39,0,0,0-2.47,2.47,2.35,2.35,0,0,0,.7,1.72,2.4,2.4,0,0,0,1.77.71h1l0,7.07a7,7,0,0,0,1.72,4.92,6,6,0,0,0,4.57,1.89,5.92,5.92,0,0,0,4.5-1.84,6.56,6.56,0,0,0,1.7-4.65A2.58,2.58,0,0,0,389.75,108.41Z"></path>
  <path class="cls-1" d="M200,62.19h-9.86a3.1,3.1,0,0,0-2.18.87,3.19,3.19,0,0,0,0,4.5,3.12,3.12,0,0,0,2.18.86H194a8.48,8.48,0,0,1-1,3.14,8.07,8.07,0,0,1-3.18,3.27A9.11,9.11,0,0,1,185.18,76,10.1,10.1,0,0,1,180,74.71a9.38,9.38,0,0,1-3.56-3.62,11.15,11.15,0,0,1,0-10.49A9.29,9.29,0,0,1,180.11,57a10.5,10.5,0,0,1,5.23-1.32,10.11,10.11,0,0,1,6.9,2.53,3.1,3.1,0,0,0,5.1-2.38,3,3,0,0,0-1.11-2.39,16,16,0,0,0-5-2.93,17,17,0,0,0-5.84-1A16.67,16.67,0,0,0,177,51.6a15.87,15.87,0,0,0-5.93,5.91,16.5,16.5,0,0,0-2.16,8.33A16.73,16.73,0,0,0,171,74.18a15.61,15.61,0,0,0,5.85,5.89,16.36,16.36,0,0,0,8.29,2.14,15.39,15.39,0,0,0,7.79-2,14.29,14.29,0,0,0,5.49-5.58,14.71,14.71,0,0,0,1.79-6.19,3.12,3.12,0,0,0-.22-6.23Z"></path>
  <path class="cls-1" d="M217.51,58.1a9,9,0,0,0-5,1.41c-.16.1-.31.21-.46.32a3.55,3.55,0,0,0-.55-.74,3.19,3.19,0,0,0-4.46,0,3.07,3.07,0,0,0-.87,2.18V78.93a3.09,3.09,0,0,0,.87,2.18,3,3,0,0,0,2.25.94,3.11,3.11,0,0,0,3.12-3.12V71.36a10.66,10.66,0,0,1,.66-3.88,5.73,5.73,0,0,1,1.68-2.42,3.44,3.44,0,0,1,2.23-.77,2.2,2.2,0,0,1,1.71.58,2.45,2.45,0,0,1,.62,1.74v.15a3.59,3.59,0,0,0,.88,2.08,3.17,3.17,0,0,0,4.5,0,3.42,3.42,0,0,0,.88-2.41,8.38,8.38,0,0,0-2.22-6A7.85,7.85,0,0,0,217.51,58.1Z"></path>
  <path class="cls-1" d="M245.7,59.09a2.6,2.6,0,0,0-.3.36,11.06,11.06,0,0,0-1.36-.61,11.92,11.92,0,0,0-4.19-.74,11.79,11.79,0,0,0-6,1.57A11.33,11.33,0,0,0,229.61,64a13.08,13.08,0,0,0,0,12.2,11.35,11.35,0,0,0,4.22,4.39,11.63,11.63,0,0,0,6,1.6,11.82,11.82,0,0,0,4.15-.74,11.52,11.52,0,0,0,1.43-.64,3.74,3.74,0,0,0,.27.31,3.16,3.16,0,0,0,4.41,0,3.05,3.05,0,0,0,.91-2.21V61.3a3.05,3.05,0,0,0-.91-2.21A3.17,3.17,0,0,0,245.7,59.09ZM235.08,73.18a6.56,6.56,0,0,1,0-6.09,5.18,5.18,0,0,1,2-2,6.12,6.12,0,0,1,3-.75,6.23,6.23,0,0,1,2.83.64,5.63,5.63,0,0,1,1.79,1.42v7.59A5.43,5.43,0,0,1,243,75.36a6.33,6.33,0,0,1-5.88-.11A5.22,5.22,0,0,1,235.08,73.18Z"></path>
  <path class="cls-1" d="M268.08,58.1a10.47,10.47,0,0,0-4.78,1.08,9.18,9.18,0,0,0-.92.53,3.13,3.13,0,0,0-.48-.62,3.19,3.19,0,0,0-4.46,0,3.07,3.07,0,0,0-.87,2.18V78.93a3.09,3.09,0,0,0,.87,2.18,3.19,3.19,0,0,0,4.46,0,3.08,3.08,0,0,0,.9-2.21V70.54a7.52,7.52,0,0,1,1.31-4.73,4.23,4.23,0,0,1,3.56-1.48,2.43,2.43,0,0,1,2.12.91,5.29,5.29,0,0,1,.86,3.3V78.93a3,3,0,0,0,3.12,3.12,3.13,3.13,0,0,0,2.17-.86,3,3,0,0,0,.94-2.26V68.13A10.71,10.71,0,0,0,274.54,61,8.11,8.11,0,0,0,268.08,58.1Z"></path>
  <path class="cls-1" d="M298.53,48.49a3.05,3.05,0,0,0-.91,2.21v8.45c-.25-.11-.5-.22-.75-.31a12,12,0,0,0-4.2-.74,11.79,11.79,0,0,0-6,1.57A11.24,11.24,0,0,0,282.44,64a13,13,0,0,0,0,12.2,11.35,11.35,0,0,0,4.22,4.39,11.68,11.68,0,0,0,6,1.6,11.87,11.87,0,0,0,4.16-.74,11.38,11.38,0,0,0,1.42-.64c.09.1.18.21.28.31a3.16,3.16,0,0,0,4.41,0,3.09,3.09,0,0,0,.91-2.21V50.7a3.09,3.09,0,0,0-.91-2.21A3.18,3.18,0,0,0,298.53,48.49ZM287.9,73.18a6.56,6.56,0,0,1,0-6.09A5.31,5.31,0,0,1,290,65a6.56,6.56,0,0,1,5.87-.11,5.56,5.56,0,0,1,1.8,1.42v7.59a5.47,5.47,0,0,1-1.77,1.42,6.31,6.31,0,0,1-5.87-.11A5.31,5.31,0,0,1,287.9,73.18Z"></path>
  <path class="cls-1" d="M310.42,49.64a4.14,4.14,0,0,0,0,5.72,4,4,0,0,0,2.86,1.16,4,4,0,0,0,2.86-1.14,3.9,3.9,0,0,0,1.2-2.88,4,4,0,0,0-1.16-2.9A4.18,4.18,0,0,0,310.42,49.64Z"></path>
  <path class="cls-1" d="M311.14,59.15a3,3,0,0,0-1,2.23V78.93a3,3,0,0,0,.95,2.23,3.11,3.11,0,0,0,5.28-2.23V61.38a3.06,3.06,0,0,0-.92-2.21A3.13,3.13,0,0,0,311.14,59.15Z"></path>
  <path class="cls-1" d="M339.16,59.66a12.88,12.88,0,0,0-12.29,0A11.47,11.47,0,0,0,322.49,64a12.61,12.61,0,0,0,0,12.26,11.6,11.6,0,0,0,4.37,4.34A12.15,12.15,0,0,0,333,82.21a12.33,12.33,0,0,0,6.15-1.56,11.46,11.46,0,0,0,4.38-4.36,12.69,12.69,0,0,0,0-12.3A11.53,11.53,0,0,0,339.16,59.66ZM333,76a6,6,0,0,1-3-.76,5.64,5.64,0,0,1-2.09-2.08,5.87,5.87,0,0,1-.76-3,6,6,0,0,1,.76-3A5.56,5.56,0,0,1,330,65.06a6.37,6.37,0,0,1,6.07,0,5.49,5.49,0,0,1,2.09,2.08,6,6,0,0,1,.76,3,5.87,5.87,0,0,1-.76,3h0a5.64,5.64,0,0,1-2.09,2.08A6,6,0,0,1,333,76Z"></path>
  <path class="cls-1" d="M361.92,69.18a10.13,10.13,0,0,0-1.77-1.2c-.59-.33-1.4-.73-2.42-1.21l-1.31-.62a4.35,4.35,0,0,1-1.28-.9.52.52,0,0,1-.15-.35.46.46,0,0,1,.2-.42,1.31,1.31,0,0,1,.94-.27,2.79,2.79,0,0,1,1.16.25,3.06,3.06,0,0,1,1,.74,3.18,3.18,0,0,0,2.31,1,2.93,2.93,0,0,0,2.08-.83,2.81,2.81,0,0,0,1-2.16,3.16,3.16,0,0,0-.7-1.93A7.85,7.85,0,0,0,360.1,59a8.81,8.81,0,0,0-3.84-.86A7.77,7.77,0,0,0,351,60,6.56,6.56,0,0,0,350,68.73a9.44,9.44,0,0,0,3.41,2.71l3.38,1.71a4.12,4.12,0,0,1,1.34,1,1.08,1.08,0,0,1,.23.73.83.83,0,0,1-.41.75,2.9,2.9,0,0,1-1.8.47,4.31,4.31,0,0,1-3.29-1.39,3,3,0,0,0-2.31-1,2.91,2.91,0,0,0-1.95.67,3,3,0,0,0-1.09,2.32,3.75,3.75,0,0,0,.71,2.06,8.49,8.49,0,0,0,3.39,2.62,11,11,0,0,0,4.42.89,9,9,0,0,0,6-2,7.18,7.18,0,0,0-.08-11Z"></path>
  <path class="cls-1" d="M389.54,72.24a3.51,3.51,0,0,0,1-2.15,11.51,11.51,0,0,0,.05-1.22,10.58,10.58,0,0,0-5.41-9.33,11.44,11.44,0,0,0-5.72-1.44,12,12,0,0,0-6.06,1.57A11.43,11.43,0,0,0,369.08,64a13,13,0,0,0,0,12.25,11,11,0,0,0,4.38,4.4,13.05,13.05,0,0,0,6.39,1.55,13.69,13.69,0,0,0,4.86-.86,12.49,12.49,0,0,0,4-2.48,3,3,0,0,0,.2-4.45,3.23,3.23,0,0,0-4.51,0,5.9,5.9,0,0,1-2,1.25,7.44,7.44,0,0,1-2.49.39,6.33,6.33,0,0,1-4.18-1.32,5.22,5.22,0,0,1-1.32-1.61h12.95A3,3,0,0,0,389.54,72.24ZM384,67.1h-9.61a5.27,5.27,0,0,1,1.26-1.54,5.59,5.59,0,0,1,3.77-1.31A4.89,4.89,0,0,1,383,65.51,3.94,3.94,0,0,1,384,67.1Z"></path>
</svg>
